<?xml version="1.0" standalone="no"?>
<!DOCTYPE svg PUBLIC "-//W3C//DTD SVG 20010904//EN"
 "http://www.w3.org/TR/2001/REC-SVG-20010904/DTD/svg10.dtd">
<svg version="1.0" xmlns="http://www.w3.org/2000/svg"
 width="700.000000pt" height="700.000000pt" viewBox="0 0 700.000000 700.000000"
 preserveAspectRatio="xMidYMid meet">
<metadata>
Created by potrace 1.14, written by Peter Selinger 2001-2017
</metadata>
<g transform="translate(0.000000,700.000000) scale(0.100000,-0.100000)"
fill="#000000" stroke="none">
<path d="M0 3500 l0 -3500 3500 0 3500 0 0 3500 0 3500 -3500 0 -3500 0 0
-3500z m3189 2725 c185 -27 336 -71 496 -146 116 -53 256 -168 282 -229 11
-28 7 -90 -8 -104 -5 -6 -9 -20 -9 -32 0 -12 -9 -57 -19 -100 -18 -73 -27
-136 -51 -364 -18 -163 -20 -185 -26 -220 -4 -19 -8 -48 -10 -65 -12 -96 -27
-188 -40 -245 -24 -102 -56 -214 -66 -224 -4 -6 -8 -16 -8 -23 0 -27 -115
-247 -146 -280 -7 -7 -22 -29 -35 -50 -13 -20 -30 -45 -39 -54 -21 -24 -32
-39 -53 -72 -19 -29 -35 -49 -107 -132 -14 -15 -19 -25 -12 -21 6 4 12 3 12
-3 0 -5 -5 -11 -10 -13 -6 -2 -12 -14 -15 -28 -3 -14 -11 -29 -18 -35 -8 -5
-15 -14 -17 -20 -7 -24 -47 -74 -54 -67 -4 4 -7 2 -6 -3 5 -22 -1 -35 -14 -35
-8 0 -18 -9 -21 -21 -7 -22 -62 -79 -76 -79 -5 0 -9 -6 -9 -14 0 -8 -9 -18
-20 -21 -11 -3 -20 -11 -20 -17 0 -6 -16 -24 -35 -41 -19 -16 -32 -34 -28 -40
3 -5 2 -8 -3 -5 -5 3 -17 -3 -26 -14 -10 -10 -15 -18 -11 -18 3 0 -6 -10 -20
-23 -15 -12 -27 -26 -27 -30 0 -4 -20 -28 -45 -53 -25 -24 -45 -48 -45 -53 0
-4 -11 -21 -25 -37 -15 -16 -33 -41 -43 -56 -9 -16 -20 -28 -25 -28 -4 0 -5
-4 -2 -10 3 -5 1 -10 -5 -10 -6 0 -9 -4 -6 -8 3 -5 -2 -18 -12 -28 -9 -11 -30
-46 -47 -79 -16 -33 -33 -62 -38 -63 -4 -2 -5 -8 -1 -13 3 -5 0 -9 -6 -9 -6 0
-8 -4 -5 -10 3 -5 1 -10 -6 -10 -7 0 -9 -3 -6 -6 4 -4 0 -20 -8 -35 -8 -16
-22 -42 -30 -58 -8 -15 -12 -31 -8 -35 3 -3 2 -6 -4 -6 -5 0 -10 -6 -11 -12 0
-7 -3 -24 -7 -38 -4 -14 -10 -41 -15 -60 -14 -58 -17 -73 -28 -115 -5 -22 -10
-47 -11 -55 -3 -62 -19 -159 -29 -177 -18 -32 -90 -42 -157 -20 -5 2 -26 7
-44 11 -89 21 -329 137 -448 217 -540 363 -849 882 -904 1521 -52 602 175
1215 610 1649 301 300 731 515 1136 569 50 6 97 13 105 15 51 10 347 3 439
-10z m2091 -1799 c233 -56 442 -223 553 -443 68 -132 95 -341 62 -475 -36
-151 -109 -255 -194 -278 -21 -5 -78 -5 -136 -1 -126 11 -141 4 -185 -81 -18
-35 -39 -71 -47 -80 -21 -24 -105 -41 -163 -34 -51 6 -226 71 -236 87 -3 5
-14 9 -25 9 -10 0 -19 3 -19 8 0 4 -10 12 -23 18 -86 42 -189 102 -227 133
-25 21 -69 50 -97 66 -29 15 -53 32 -53 37 0 4 -6 8 -13 8 -7 0 -23 9 -35 20
-12 11 -24 20 -27 20 -14 0 -74 47 -68 53 3 4 0 7 -8 7 -9 0 -32 32 -52 73
-57 111 -50 172 35 274 24 29 65 95 93 148 82 158 153 239 270 310 80 48 148
72 295 105 139 32 218 36 300 16z m177 -1631 c37 -25 54 -80 54 -176 0 -47 -4
-95 -7 -105 -9 -24 -44 -69 -52 -68 -4 0 -15 -7 -25 -17 -21 -19 -66 -13 -137
18 -89 39 -210 127 -210 153 0 5 -8 10 -17 10 -15 0 -16 2 -3 10 8 5 12 10 8
10 -23 0 39 41 122 79 52 24 116 56 141 70 56 32 94 36 126 16z"/>
</g>
</svg>
